P2
# CREATOR: GIMP PNM Filter Version 1.1
70 30
255
1
1
255
255
255
255
255
255
255
255
255
255
255
255
128
0
0
128
128
128
128
128
128
0
0
128
128
128
128
128
128
0
0
128
128
128
128
128
128
0
0
128
128
128
128
128
128
0
0
128
255
255
255
255
255
255
255
255
255
255
255
255
255
255
255
255
255
255
255
255
1
255
255
255
255
255
255
255
255
255
255
255
255
255
128
0
0
128
128
128
128
128
128
0
0
128
128
128
128
128
128
0
0
128
128
128
128
128
128
0
0
128
128
128
128
128
128
0
0
128
255
255
255
255
255
255
255
255
255
255
255
255
255
255
255
255
255
255
255
255
255
255
255
255
255
255
255
255
255
255
255
255
255
255
128
128
128
128
128
0
0
128
128
128
128
128
128
0
0
128
128
128
128
128
128
0
0
128
128
128
128
128
128
0
0
128
128
128
128
128
255
255
255
255
255
255
255
255
255
255
255
255
255
255
255
255
255
255
255
255
255
255
255
255
255
255
255
255
255
255
255
255
255
255
128
128
128
128
128
0
0
128
128
128
128
128
128
0
0
128
128
128
128
128
128
0
0
128
128
128
128
128
128
0
0
128
128
128
128
128
255
255
255
255
255
255
255
255
255
255
255
255
255
255
255
255
255
255
255
255
255
255
255
255
255
255
255
255
255
255
255
255
255
255
128
0
0
128
128
128
128
128
128
0
0
128
128
128
128
128
128
0
0
128
128
128
128
128
128
0
0
128
128
128
128
128
128
0
0
128
255
255
255
255
255
255
255
255
255
255
255
255
255
255
255
255
255
255
255
255
255
255
255
255
255
255
255
255
255
255
255
255
255
255
128
0
0
128
128
128
128
128
128
0
0
128
128
128
128
128
128
0
0
128
128
128
128
128
128
0
0
128
128
128
128
128
128
0
0
128
255
255
255
255
255
255
255
255
255
255
255
255
255
255
255
255
255
255
255
255
255
255
255
255
255
255
255
255
255
255
255
255
255
255
128
128
128
128
128
0
0
128
128
128
128
128
128
0
0
128
128
128
128
128
128
0
0
128
128
128
128
128
128
0
0
128
128
128
128
128
255
255
255
255
255
255
255
255
255
255
255
255
255
255
255
255
255
255
255
255
255
255
255
255
255
255
255
255
255
255
255
255
255
255
128
128
128
128
128
0
0
128
128
128
128
128
128
0
0
128
128
128
128
128
128
0
0
128
128
128
128
128
128
0
0
128
128
128
128
128
255
255
255
255
255
255
255
255
255
255
255
255
255
255
255
255
255
255
255
255
255
255
255
255
255
255
255
255
255
255
255
255
255
255
128
0
0
128
128
128
128
128
128
0
0
128
128
128
128
128
128
0
0
128
128
128
128
128
128
0
0
128
128
128
128
128
128
0
0
128
255
255
255
255
255
255
255
255
255
255
255
255
255
255
255
255
255
255
255
255
255
255
255
255
255
255
255
255
255
255
255
255
255
255
128
0
0
128
128
128
128
128
128
0
0
128
128
128
128
128
128
0
0
128
128
128
128
128
128
0
0
128
128
128
128
128
128
0
0
128
255
255
255
255
255
255
255
255
255
255
255
255
255
255
255
255
255
255
255
255
255
255
255
255
255
255
255
255
255
255
255
255
255
255
128
128
128
128
128
0
0
128
128
128
128
128
128
0
0
128
128
128
128
128
128
0
0
128
128
128
128
128
128
0
0
128
128
128
128
128
255
255
255
255
255
255
255
255
255
255
255
255
255
255
255
255
255
255
255
255
255
255
255
255
255
255
255
255
255
255
255
255
255
255
128
128
128
128
128
0
0
128
128
128
128
128
128
0
0
128
128
128
128
128
128
0
0
128
128
128
128
128
128
0
0
128
128
128
128
128
255
255
255
255
255
255
255
255
255
255
255
255
255
255
255
255
255
255
255
255
255
255
255
255
255
255
255
255
255
255
255
255
255
255
128
0
0
128
128
128
128
128
128
0
0
128
128
128
128
128
128
0
0
128
128
128
128
128
128
0
0
128
128
128
128
128
128
0
0
128
255
255
255
255
255
255
255
255
255
255
255
255
255
255
255
255
255
255
255
255
255
255
255
255
255
255
255
255
255
255
255
255
255
255
128
0
0
128
128
128
128
128
128
0
0
128
128
128
128
128
128
0
0
128
128
128
128
128
128
0
0
128
128
128
128
128
128
0
0
128
255
255
255
255
255
255
255
255
255
255
255
255
255
255
255
255
255
255
255
255
0
0
0
0
0
0
0
0
0
0
0
0
0
255
128
128
128
128
128
0
0
128
128
128
128
128
128
0
0
128
128
128
128
128
128
0
0
128
128
128
128
128
128
0
0
128
128
128
128
128
255
255
255
255
255
255
255
255
255
255
255
255
255
255
255
255
255
255
255
255
0
0
0
0
0
0
0
0
0
0
0
0
0
255
128
128
128
128
128
0
0
128
128
128
128
128
128
0
0
128
128
128
128
128
128
0
0
128
128
128
128
128
128
0
0
128
128
128
128
128
255
255
255
255
255
255
255
255
255
255
255
255
255
255
255
255
255
255
255
255
255
255
255
255
255
255
255
255
255
255
255
255
255
255
128
0
0
128
128
128
128
128
128
0
0
128
128
128
128
128
128
0
0
128
128
128
128
128
128
0
0
128
128
128
128
128
128
0
0
128
255
255
255
255
255
255
255
255
255
255
255
255
255
255
255
255
255
255
255
255
255
255
255
255
255
255
255
255
255
255
255
255
255
255
128
0
0
128
128
128
128
128
128
0
0
128
128
128
128
128
128
0
0
128
128
128
128
128
128
0
0
128
128
128
128
128
128
0
0
128
255
255
255
255
255
255
255
255
255
255
255
255
255
255
255
255
255
255
255
255
255
255
255
255
255
255
255
255
255
255
255
255
255
255
128
128
128
128
128
0
0
128
128
128
128
128
128
0
0
128
128
128
128
128
128
0
0
128
128
128
128
128
128
0
0
128
128
128
128
128
255
255
255
255
255
255
255
255
255
255
255
255
255
255
255
255
255
255
255
255
255
255
255
255
255
255
255
255
255
255
255
255
255
255
128
128
128
128
128
0
0
128
128
128
128
128
128
0
0
128
128
128
128
128
128
0
0
128
128
128
128
128
128
0
0
128
128
128
128
128
255
255
255
255
255
255
255
255
255
255
255
255
255
255
255
255
255
255
255
255
255
255
255
255
255
255
255
255
255
255
255
255
255
255
128
0
0
128
128
128
128
128
128
0
0
128
128
128
128
128
128
0
0
128
128
128
128
128
128
0
0
128
128
128
128
128
128
0
0
128
255
255
255
255
255
255
255
255
255
255
255
255
255
255
255
255
255
255
255
255
255
255
255
255
255
255
255
255
255
255
255
255
255
255
128
0
0
128
128
128
128
128
128
0
0
128
128
128
128
128
128
0
0
128
128
128
128
128
128
0
0
128
128
128
128
128
128
0
0
128
255
255
255
255
255
255
255
255
255
255
255
255
255
255
255
255
255
255
255
255
255
255
255
255
255
255
255
255
255
255
255
255
255
255
128
128
128
128
128
0
0
128
128
128
128
128
128
0
0
128
128
128
128
128
128
0
0
128
128
128
128
128
128
0
0
128
128
128
128
128
255
255
255
255
255
255
255
255
255
255
255
255
255
255
255
255
255
255
255
255
255
255
255
255
255
255
255
255
255
255
255
255
255
255
128
128
128
128
128
0
0
128
128
128
128
128
128
0
0
128
128
128
128
128
128
0
0
128
128
128
128
128
128
0
0
128
128
128
128
128
255
255
255
255
255
255
255
255
255
255
255
255
255
255
255
255
255
255
255
255
255
255
255
255
255
255
255
255
255
255
255
255
255
255
128
0
0
128
128
128
128
128
128
0
0
128
128
128
128
128
128
0
0
128
128
128
128
128
128
0
0
128
128
128
128
128
128
0
0
128
255
255
255
255
255
255
255
255
255
255
255
255
255
255
255
255
255
255
255
255
255
255
255
255
255
255
255
255
255
255
255
255
255
255
128
0
0
128
128
128
128
128
128
0
0
128
128
128
128
128
128
0
0
128
128
128
128
128
128
0
0
128
128
128
128
128
128
0
0
128
255
255
255
255
255
255
255
255
255
255
255
255
255
255
255
255
255
255
255
255
255
255
255
255
255
255
255
255
255
255
255
255
255
255
128
128
128
128
128
0
0
128
128
128
128
128
128
0
0
128
128
128
128
128
128
0
0
128
128
128
128
128
128
0
0
128
128
128
128
128
255
255
255
255
255
255
255
255
255
255
255
255
255
255
255
255
255
255
255
255
255
255
255
255
255
255
255
255
255
255
255
255
255
255
128
128
128
128
128
0
0
128
128
128
128
128
128
0
0
128
128
128
128
128
128
0
0
128
128
128
128
128
128
0
0
128
128
128
128
128
255
255
255
255
255
255
255
255
255
255
255
255
255
255
255
255
255
255
255
255
2
255
255
255
255
255
255
255
255
255
255
255
255
255
128
0
0
128
128
128
128
128
128
0
0
128
128
128
128
128
128
0
0
128
128
128
128
128
128
0
0
128
128
128
128
128
128
0
0
128
255
255
255
255
255
255
255
255
255
255
255
255
255
255
255
255
255
255
255
255
2
2
255
255
255
255
255
255
255
255
255
255
255
255
128
0
0
128
128
128
128
128
128
0
0
128
128
128
128
128
128
0
0
128
128
128
128
128
128
0
0
128
128
128
128
128
128
0
0
128
255
255
255
255
255
255
255
255
255
255
255
255
255
255
255
255
255
255
255
255
